<svg xmlns="http://www.w3.org/2000/svg" id="Layer_1" viewBox="0 0 200 200">
    <style>
        .st0{fill:#303030}.st1{fill:#c6c6c6}.st2{fill:#fff}.st3{fill:#474747}.st4{fill:#454545}.st5{fill:#6f6f6f}.st6{fill:#777}.st7{opacity:.6;fill:#ff5c5c;enable-background:new}.st8{fill:red}.st9{fill:#898989}
    </style>
    <g id="Layer_2_1_">
        <path d="M164.333 120.912c-.2-3.9-1.7-7.7-4.1-10.8-5.4-7-6.5-12.6-6.5-12.6-4.2-11.1-8-18.5-10.8-23.2-2.9-4.9-8-8.3-13.7-9-11.4-1.5-47.2-1.5-58.7 0-5.7.7-10.7 4.1-13.7 9-2.6 4.6-6.3 12-10.6 23.2 0 0-1.1 5.6-6.5 12.6-2.4 3.1-3.9 6.9-4 10.8-.4 8.5 2.1 10.4 4.3 29.7.2 1.5 1.5 2.7 3 2.7h114.1c1.5 0 2.8-1.1 3-2.7.6-5.4 2.5-16.4 2.5-16.4 1.5-5.5 1.9-9.899 1.7-13.3z" class="st0"/>
        <path d="M151.433 97.012c-3.3-8.4-6.8-15.7-10.2-21.5-2.6-4.4-7.1-7.5-12.1-8.2-11.5-1.5-46.8-1.5-58.1 0-5 .7-9.6 3.8-12.1 8.2-3.4 5.9-6.9 13.3-10.2 21.5 34.1 2.701 68.5 2.701 102.7 0z" class="st1"/>
        <path d="M146.533 106.713c-1.3.4-2.5 1-3.5 1.6-1.9 1-3.8 2-5.7 2.7-3.3 1.2-3.8 3.1-3.8 3.1-.1.1-.2.3-.3.4-2.5 3.7.8 8.6 5.2 8 6.4-.9 11.7-2.8 14.4-3.8 1.5-.6 2.7-1.9 3.1-3.5 0-.2.1-.3.1-.5.9-5.301-4.3-9.6-9.5-8z" class="st2"/>
        <path d="M153.433 136.413h-7.2c-1.1 0-1.6 1.3-.9 2.1l7.1 7.1c.8.8 2.1.2 2.1-.9v-7.1c.1-.601-.5-1.2-1.1-1.2z" class="st3"/>
        <path d="M160.033 150.613c-.2 1.5-1.5 2.7-3 2.7h-13.7v8c0 2.8 2.3 5.1 5.1 5.1h8.6c2.8 0 5.1-2.3 5.1-5.1v-24.9c-.5 3.299-1.6 10.2-2.1 14.2z" class="st4"/>
        <path d="M166.033 91.412c-.4-1.9-2.2-3.1-4.1-3.1h-3.4c-2.2 0-4 1.8-4 4v2.5h-1.8l1 2.5h4c2.1 0 4.1-.4 6-1.3 1.8-.799 2.8-2.699 2.3-4.6z" class="st0"/>
        <circle cx="148.833" cy="113.113" r="5" class="st3"/>
        <circle cx="138.733" cy="117.113" r="3.7" class="st3"/>
        <path d="M129.133 117.113l-5.7 10h-46.8l-5.7-10z" class="st5"/>
        <path d="M66.933 114.512c-.1-.1-.2-.3-.3-.4 0 0-.6-1.9-3.8-3.1-2-.8-3.9-1.7-5.7-2.7-1-.6-2.2-1.1-3.5-1.6-5.2-1.6-10.4 2.7-9.4 8 0 .2.1.3.1.5.4 1.6 1.6 2.9 3.1 3.5 2.7 1.1 8 2.9 14.4 3.8 4.3.701 7.6-4.299 5.1-8z" class="st2"/>
        <path d="M53.833 136.413h-7.1c-.7 0-1.2.5-1.2 1.2v7.1c0 1.1 1.3 1.6 2.1.9l7.1-7.1c.7-.801.1-2.1-.9-2.1z" class="st3"/>
        <path d="M147.433 148.813c-7.4-12.8-15.9-12.4-15.9-12.4h-63s-8.5-.4-15.9 12.4h-12.8l.2 1.7c.1 1.6 1.4 2.7 3 2.7h114.2c1.6 0 2.9-1.2 3-2.7l.2-1.7h-13z" class="st6"/>
        <path d="M43.033 153.212c-1.5 0-2.8-1.1-3-2.7-.5-3.9-1.6-10.8-2.1-14.3v24.9c0 2.8 2.3 5.1 5.1 5.1h8.6c2.8 0 5.1-2.3 5.1-5.1v-8l-13.7.1z" class="st4"/>
        <path d="M45.433 94.813v-2.5c0-2.2-1.8-4-4-4h-3.4c-1.9 0-3.6 1.3-4.1 3.1-.4 1.9.5 3.7 2.2 4.5 1.9.9 3.9 1.3 6 1.3h4l1-2.5-1.7.1z" class="st0"/>
        <circle cx="51.233" cy="113.113" r="5" class="st3"/>
        <circle cx="61.333" cy="117.113" r="3.7" class="st3"/>
        <path d="M126.733 139.913h-53.4c-.8 0-1.5.7-1.5 1.5s.7 1.5 1.5 1.5h53.3c.8 0 1.5-.7 1.5-1.5.1-.8-.6-1.5-1.4-1.5zM126.733 145.913h-53.4c-.8 0-1.5.7-1.5 1.5s.7 1.5 1.5 1.5h53.3c.8 0 1.5-.7 1.5-1.5.1-.8-.6-1.5-1.4-1.5z" class="st5"/>
    </g>
    <g id="Layer_1_2_">
        <g id="Layer_2_2_">
            <path d="M28 76.3c0-.6.5-1 1-1h142c.6 0 1 .4 1 1s-.4 1-1 1H29c-.5 0-1-.4-1-1zM28 82.8c0-.6.5-1 1-1h142c.6 0 1 .4 1 1s-.4 1-1 1H29c-.5 0-1-.4-1-1zM28 89.3c0-.6.5-1 1-1h142c.6 0 1 .4 1 1s-.4 1-1 1H29c-.5 0-1-.4-1-1zM28 95.8c0-.6.5-1 1-1h142c.6 0 1 .4 1 1s-.4 1-1 1H29c-.5 0-1-.4-1-1zM28 102.3c0-.6.5-1 1-1h142c.6 0 1 .4 1 1s-.4 1-1 1H29c-.5 0-1-.4-1-1zM28 108.8c0-.6.5-1 1-1h142c.6 0 1 .4 1 1s-.4 1-1 1H29c-.5 0-1-.4-1-1zM28 115.3c0-.6.5-1 1-1h142c.6 0 1 .4 1 1s-.4 1-1 1H29c-.5 0-1-.4-1-1zM28 121.8c0-.6.5-1 1-1h142c.6 0 1 .4 1 1s-.4 1-1 1H29c-.5 0-1-.4-1-1zM28 128.3c0-.6.5-1 1-1h142c.6 0 1 .4 1 1s-.4 1-1 1H29c-.5 0-1-.4-1-1zM28 134.8c0-.6.5-1 1-1h142c.6 0 1 .4 1 1s-.4 1-1 1H29c-.5 0-1-.4-1-1zM28 141.3c0-.6.5-1 1-1h142c.6 0 1 .4 1 1s-.4 1-1 1H29c-.5 0-1-.4-1-1zM28 147.8c0-.6.5-1 1-1h142c.6 0 1 .4 1 1s-.4 1-1 1H29c-.5 0-1-.4-1-1zM28 154.3c0-.6.5-1 1-1h142c.6 0 1 .4 1 1s-.4 1-1 1H29c-.5 0-1-.4-1-1z" class="st7"/>
        </g>
        <g id="Layer_1_1_">
            <path d="M30.5 74.5H32v3.7h-1.5zM30.5 81H32v3.7h-1.5zM30.5 87.5H32v3.7h-1.5zM30.5 94H32v3.7h-1.5zM30.5 100.5H32v3.7h-1.5zM30.5 107H32v3.7h-1.5zM30.5 113.5H32v3.7h-1.5zM30.5 120H32v3.7h-1.5zM30.5 126.5H32v3.7h-1.5zM30.5 133H32v3.7h-1.5zM30.5 139.5H32v3.7h-1.5zM30.5 146H32v3.7h-1.5zM30.5 152.5H32v3.7h-1.5zM168 74.5h1.5v3.7H168zM168 81h1.5v3.7H168zM168 87.5h1.5v3.7H168zM168 94h1.5v3.7H168zM168 100.5h1.5v3.7H168zM168 107h1.5v3.7H168zM168 113.5h1.5v3.7H168zM168 120h1.5v3.7H168zM168 126.5h1.5v3.7H168zM168 133h1.5v3.7H168zM168 139.5h1.5v3.7H168zM168 146h1.5v3.7H168zM168 152.5h1.5v3.7H168z" class="st8"/>
            <path d="M28 172c-1.4 0-2.5-1.1-2.5-2.5v-101c0-1.4 1.1-2.5 2.5-2.5s2.5 1.1 2.5 2.5v101c0 1.4-1.1 2.5-2.5 2.5zM172 172c-1.4 0-2.5-1.1-2.5-2.5v-101c0-1.4 1.1-2.5 2.5-2.5s2.5 1.1 2.5 2.5v101c0 1.4-1.1 2.5-2.5 2.5z" class="st9"/>
            <path d="M20 169.5v-3c0-1.4 1.1-2.5 2.5-2.5h155c1.4 0 2.5 1.1 2.5 2.5v3c0 1.4-1.1 2.5-2.5 2.5h-155c-1.4 0-2.5-1.1-2.5-2.5z"/>
        </g>
    </g>
</svg>
