<svg xmlns="http://www.w3.org/2000/svg" id="Layer_3" viewBox="0 0 200 200">
    <style>
        .st0{fill:#313c42}.st1{fill:#c9c8c8}.st2{fill:#a7d9fc}
    </style>
    <path d="M8.4 95.8c0 1.4.8 2.7 2.1 3.3l13.7 6.8c-.4 1.7-.6 3.4-.6 5 0 14.6 11.9 26.6 26.5 26.6.5 0 .9-.1 1.4-.1l2.8 5.6c.5.9 1.3 1.6 2.3 1.9.4.1.7.2 1.1.2.7 0 1.3-.2 1.9-.5L91.9 126l4.2 6.9c3.1 5.2 8.8 8.4 14.8 8.4 1.2 0 2.4-.2 3.6-.5l6.2 9.3c4.2 6.3 11.3 10.1 18.9 10.1h28v3.8c0 2.1 1.7 3.8 3.8 3.8h15.2c2.1 0 3.8-1.7 3.8-3.8v-38c0-2.1-1.7-3.8-3.8-3.8h-15.2c-2.1 0-3.8 1.7-3.8 3.8v11.4h-28l-5.8-8.7c2.1-2.8 3.5-6.2 3.5-9.9 0-3.5-1.2-7-3.3-9.9l-3.9-5.2 21.7-12.5c5.1-2.9 8.3-8.4 8.3-14.3 0-3.4-1-6.7-3-9.5l-19.9-28.5c-5.2-7.5-16.1-9.9-24-5.4L10.3 92.4c-1.2.7-1.9 2-1.9 3.4z" class="st0"/>
    <path d="M175.8 130.8h7.8v31.3h-7.8zM122.2 137.7l6.7-4 5.4 8.1c1.4 2.2 3.9 3.5 6.5 3.5h28.9v7.8h-28.9c-5.2 0-10.1-2.6-13-7l-5.6-8.4zM98.4 122.8l25.9-14.9 4.6 6.1c1.2 1.6 1.8 3.5 1.8 5.5 0 3.2-1.7 6.2-4.4 7.8l-9.9 6c-4.6 2.7-11 1.1-13.7-3.4l-4.3-7.1zM45.8 112.8l96.9-55.9 9.8 14c1.1 1.6 1.7 3.4 1.7 5.3 0 3.3-1.8 6.4-4.6 8L58 137.1l-12.2-24.3z" class="st1"/>
    <path d="M29.1 109.8l8.7 4.3 8.2 16.4c-9.6-1.3-17-9.4-17-19.3-.1-.4 0-.9.1-1.4z" class="st2"/>
    <path d="M17.6 95.4l99.8-57c1.7-1 3.6-1.5 5.5-1.5 3.6 0 7 1.8 9 4.7l6.2 8.9-97.7 56.3-22.8-11.4z" class="st1"/>
    <circle cx="64.2" cy="119.1" r="3.9" class="st0"/>
</svg>
