<?xml version="1.0" encoding="utf-8"?>
<!-- Generator: Adobe Illustrator 22.1.0, SVG Export Plug-In . SVG Version: 6.00 Build 0)  -->
<svg version="1.1" id="Layer_1" xmlns="http://www.w3.org/2000/svg" xmlns:xlink="http://www.w3.org/1999/xlink" x="0px" y="0px"
	 viewBox="0 0 70 45" style="enable-background:new 0 0 70 45;" xml:space="preserve">
<style type="text/css">
	.st0{display:none;}
	.st1{display:inline;fill:#17DD17;}
	.st2{clip-path:url(#SVGID_2_);}
	.st3{fill:#CCE0FF;}
	.st4{fill:#079907;}
	.st5{fill:url(#SVGID_3_);}
	.st6{fill:#FFFFFF;}
	.st7{fill:none;stroke:#FFFFFF;stroke-width:0.6886;stroke-miterlimit:10;}
	.st8{fill:none;stroke:#FFFFFF;stroke-width:0.4;stroke-miterlimit:10;}
	.st9{fill:#919191;}
	.st10{fill:#595959;}
	.st11{fill:url(#SVGID_4_);stroke:#3D3D3D;stroke-width:0.1271;stroke-miterlimit:10;}
	.st12{fill:url(#SVGID_5_);stroke:#3D3D3D;stroke-width:0.1037;stroke-miterlimit:10;}
	.st13{fill:url(#SVGID_6_);}
	.st14{fill:none;stroke:#3D3D3D;stroke-width:0.1271;stroke-miterlimit:10;}
	.st15{fill:#3D3D3D;}
	.st16{fill:#161616;}
	.st17{fill:none;stroke:#2B2B2B;stroke-width:0.2361;stroke-linecap:round;stroke-miterlimit:10;}
	.st18{opacity:0.7;enable-background:new    ;}
	.st19{fill:#050505;}
	.st20{fill:url(#SVGID_7_);}
	.st21{fill:#DDDDDD;}
	.st22{fill:none;stroke:#050505;stroke-width:0.1014;stroke-miterlimit:10;}
	.st23{fill:none;stroke:#232323;stroke-width:0.1014;stroke-miterlimit:10;}
	.st24{fill:#6786A5;}
	.st25{fill:#F2F2F2;}
	.st26{fill:#424242;}
	.st27{clip-path:url(#SVGID_2_);fill:#231600;}
	.st28{fill:#212121;}
	.st29{fill:#606060;}
	.st30{clip-path:url(#SVGID_2_);fill:#EDFF00;}
	.st31{clip-path:url(#SVGID_2_);fill:none;stroke:#000000;stroke-width:5.000000e-02;stroke-miterlimit:10;}
</style>
<g id="Layer_17" class="st0">
	<rect class="st1" width="70" height="45"/>
</g>
<g>
	<defs>
		<rect id="SVGID_1_" width="70" height="45"/>
	</defs>
	<clipPath id="SVGID_2_">
		<use xlink:href="#SVGID_1_"  style="overflow:visible;"/>
	</clipPath>
	<g id="Layer_1_1_" class="st2">
		
			<image style="overflow:visible;enable-background:new    ;" width="419" height="272" xlink:href="fastag.png"  transform="matrix(0.1671 0 0 0.1654 0 0)">
		</image>
	</g>
	<g id="Layer_8" class="st2">
		<rect class="st3" width="70" height="45"/>
	</g>
	<g id="Layer_9" class="st2">
		<rect y="27.5" class="st4" width="70" height="17.5"/>
	</g>
	<g id="Layer_15" class="st2">
		<linearGradient id="SVGID_3_" gradientUnits="userSpaceOnUse" x1="-1.025" y1="42.5784" x2="79.5167" y2="42.5784">
			<stop  offset="0" style="stop-color:#ADADAD"/>
			<stop  offset="1" style="stop-color:#777777"/>
		</linearGradient>
		<polygon class="st5" points="-1,42.5 75.9,20.7 79.5,42.2 74.6,43.8 53.9,50.8 15.8,64.4 		"/>
	</g>
	<g id="Layer_16" class="st2">
		<polygon class="st6" points="26.7,44.8 36.9,42.3 38,43.3 32.4,44.8 27.6,46 		"/>
		<polygon class="st6" points="48.9,37.5 59.3,34.3 62,35.5 55.3,37.5 50.5,38.8 		"/>
		<g>
			<line class="st7" x1="26" y1="54.8" x2="75.9" y2="35"/>
			<line class="st8" x1="-2.9" y1="46" x2="72.5" y2="22.9"/>
		</g>
	</g>
	<g id="Layer_5" class="st2">
		<polygon class="st9" points="36.8,3.4 36.8,30.8 15.4,36.3 15.7,4.8 		"/>
	</g>
	<g id="Layer_6" class="st2">
		<polygon class="st10" points="2.5,4.3 15.7,4.8 15.4,36.3 2.5,33.1 		"/>
	</g>
	<g id="Layer_11" class="st2">
		
			<linearGradient id="SVGID_4_" gradientUnits="userSpaceOnUse" x1="16.8267" y1="-316.7294" x2="28.1615" y2="-327.8525" gradientTransform="matrix(1 0 0 -1 0 -309)">
			<stop  offset="0" style="stop-color:#FFFFFF"/>
			<stop  offset="0.4505" style="stop-color:#71C2FF"/>
			<stop  offset="1" style="stop-color:#FDFFFD"/>
		</linearGradient>
		<polygon class="st11" points="19,7.3 26.4,6.5 26.4,19.4 19,20.5 		"/>
	</g>
	<g id="Layer_12" class="st2">
		
			<linearGradient id="SVGID_5_" gradientUnits="userSpaceOnUse" x1="27.6035" y1="-316.1901" x2="37.2097" y2="-325.6167" gradientTransform="matrix(1 0 0 -1 0 -309)">
			<stop  offset="0" style="stop-color:#FFFFFF"/>
			<stop  offset="0.4505" style="stop-color:#71C2FF"/>
			<stop  offset="1" style="stop-color:#FDFFFD"/>
		</linearGradient>
		<polygon class="st12" points="29.9,6.4 35.3,5.6 35.3,17.6 29.9,18.6 		"/>
	</g>
	<g id="Layer_14" class="st2">
		
			<linearGradient id="SVGID_6_" gradientUnits="userSpaceOnUse" x1="8.9706" y1="-316.1873" x2="8.9706" y2="-326.3768" gradientTransform="matrix(1 0 0 -1 0 -309)">
			<stop  offset="0" style="stop-color:#71C2FF"/>
			<stop  offset="1" style="stop-color:#F8FCFF"/>
		</linearGradient>
		<polygon class="st13" points="4.9,6.8 13.3,7.4 13.3,20 4.6,19.4 		"/>
	</g>
	<g id="Layer_10" class="st2">
		<polygon class="st14" points="17.8,6.1 29.1,5 29.1,32.2 17.8,34.8 		"/>
		<rect x="17.8" y="8.5" class="st15" width="0.6" height="3.6"/>
		<rect x="18" y="28.5" class="st15" width="0.6" height="3.6"/>
	</g>
	<g id="Layer_4" class="st2">
		<polygon class="st16" points="2.5,4.3 17.5,2.9 22.8,2.4 36.8,3.3 15.8,4.8 		"/>
	</g>
	<g id="Layer_18" class="st2">
		<path class="st17" d="M28,19.2c0,0,0.8,2.2-0.6,2.6"/>
	</g>
	<g id="Layer_2_2_" class="st2">
		
			<ellipse transform="matrix(9.117369e-02 -0.9958 0.9958 9.117369e-02 5.0868 74.6928)" class="st18" cx="43.5" cy="34.6" rx="2.2" ry="12.9"/>
	</g>
	<g id="Layer_7_9_" class="st2">
		<g>
			<path class="st19" d="M52.7,36.2c0,0-0.3,1.7,0.3,2.2l3.1,0.3c0,0,0.8-0.9,1-4.9s0.2-3.9,0.2-3.9L56,29.8c0,0-1.4,3.2-1,5.3
				L52.7,36.2z"/>
			<path class="st19" d="M64.6,32.5c0,0-0.2,1.8,0.7,1.9c0.8,0.1,2.2,0.2,2.2,0.2s0.9,0,1.2-4.3c0,0,0.3-3.3-1-2.6
				c0,0-1.2,0.7-1.5,4.1L65.9,32L64.6,32.5z"/>
			<path class="st19" d="M64.6,32.5c0,0-0.2,1.8,0.7,1.9c0.8,0.1,2.2,0.2,2.2,0.2s0.9,0,1.2-4.3c0,0,0.2-3.4-1.3-2.7
				c0,0-1.8,0.1-1.3,4.2L66,32L64.6,32.5z"/>
			<linearGradient id="SVGID_7_" gradientUnits="userSpaceOnUse" x1="33.5514" y1="26.9547" x2="70.3798" y2="26.9547">
				<stop  offset="0" style="stop-color:#4F4F4F"/>
				<stop  offset="1" style="stop-color:#141414"/>
			</linearGradient>
			<path class="st20" d="M40.9,24c0,0,3.1-4,4.9-5.1c1.8-1,3.7-1.7,9.8-1.3c0.3,0,0.7,0.1,1.1,0.1c0.3,0,0.7,0.1,1,0.1
				c3.8,0.4,7.6,0.5,10.6,3.8c0,0,0.4,0.1,1,0.4c0.4,0.2,1,0.6,1,1.1c0.1,1,0.1,4.8-0.4,5.5c-0.7,0.9-1,2-1,2s0.1-6.3-2-2.6L66.1,32
				L58,34.6c0,0,0.7-6.7-1.4-5c0,0-1.5,2.7-1.4,5.8l-2.8,0.9c0,0-10.2-0.3-13.7-1.1c-3.7-0.8-5.1-1.4-5.1-1.4s-0.4-4.6,0.7-6
				c1.1-1.2,4.3-3.6,6.5-3.9L40.9,24z"/>
			<path class="st21" d="M65.6,21.2c0,0,0.7,1.5,0.7,1.9l0.7-0.2L65.6,21.2L65.6,21.2z"/>
			<ellipse transform="matrix(0.113 -0.9936 0.9936 0.113 16.0237 86.6649)" class="st6" cx="56.6" cy="34.4" rx="3.5" ry="0.4"/>
			<ellipse transform="matrix(0.113 -0.9936 0.9936 0.113 15.9353 86.708)" class="st22" cx="56.5" cy="34.4" rx="2" ry="0.2"/>
			<path class="st21" d="M61.4,19.8c0,0,1.1,1.1,1.7,4.2l-4.1,1.7C59.1,25.7,60.1,20.2,61.4,19.8L61.4,19.8z"/>
			<ellipse transform="matrix(0.113 -0.9936 0.9936 0.113 28.9995 94.6945)" class="st6" cx="67.5" cy="31.1" rx="2.8" ry="0.7"/>
			<ellipse transform="matrix(0.113 -0.9936 0.9936 0.113 28.9995 94.6945)" class="st23" cx="67.5" cy="31.1" rx="2.1" ry="0.3"/>
			<path class="st19" d="M34.5,34.3c0,0-0.2,1.8,0.3,2.1c0.4,0.3,3.1,0.4,3.1,0.4s0.8-1.1,0.8-1.5C38.3,35.2,34.6,34.4,34.5,34.3
				L34.5,34.3L34.5,34.3z"/>
			<rect x="41.2" y="31.1" transform="matrix(0.113 -0.9936 0.9936 0.113 3.2752 71.7679)" class="st24" width="1.3" height="6"/>
			<path class="st21" d="M62.2,19.7c0,0,1.1,1.3,1.6,4.2l2.1-0.7c0,0-0.6-3.2-2.4-3.3L62.2,19.7L62.2,19.7z"/>
			<path class="st25" d="M49.1,30.1c0,0,3.9-0.2,3.9,0.4c0,0.6-0.8,1.6-0.8,1.6s-1.4,0-3.1-0.1l-0.8-0.1c0,0-0.3-0.3,0.3-1.3
				L49.1,30.1z"/>
			<path class="st25" d="M34.2,28.3c0,0-0.5,0.8-0.5,1.9c0,0,2.4,0.4,3.2,0.4c0,0,0.4-1.2-0.3-1.9L34.2,28.3z"/>
			<path class="st26" d="M38.1,29.3l9.3,1.1c0,0-0.3,1.6-1,1.5c-0.7-0.2-5.8,0-8.1-1C38.1,30.7,37.9,29.8,38.1,29.3L38.1,29.3z"/>
			<g>
				<path class="st21" d="M46.4,19.5c0,0-3.3,2.5-4.7,4.7c0,0,2.4,0.7,7.1,1.1c4.7,0.5,8.9,0.6,8.9,0.6s1-4.4,1.6-5L46.4,19.5z"/>
			</g>
		</g>
	</g>
	<polygon class="st27" points="50.7,38.2 50.8,38.2 52.9,35.1 52.7,35.1 	"/>
	<g id="Layer_19" class="st2">
		<polygon class="st28" points="1.9,26.6 2.4,40.4 5.1,39.8 5.1,26.2 2.4,25.5 		"/>
		<polygon class="st29" points="0.6,26.2 0.8,40 2.4,40.4 2.4,25.5 		"/>
	</g>
	<polygon class="st30" points="1,26.3 8.3,27.3 6.9,31.5 1.3,30.6 	"/>
	<polygon class="st30" points="15.7,28.4 22,29.3 20.1,33.7 13.9,32.7 	"/>
	<polygon class="st30" points="29.5,30.3 35.8,31.3 33.8,36.1 27.4,35 	"/>
	<polygon class="st30" points="43.7,32.4 50.2,33.3 48,38.5 41.1,37.3 	"/>
	<polyline class="st30" points="65.9,41.5 56.2,39.8 58.9,34.6 68,36 	"/>
	<polygon class="st2" points="8.3,27.3 15.7,28.4 13.9,32.7 6.9,31.5 	"/>
	<polygon class="st2" points="22,29.3 29.5,30.3 27.4,35 20.1,33.7 	"/>
	<polygon class="st2" points="35.8,31.3 43.7,32.4 41.1,37.3 33.8,36.1 	"/>
	<polygon class="st2" points="50.2,33.4 58.9,34.6 56.2,39.8 48,38.4 	"/>
	<path class="st31" d="M49.8,41.7"/>
	<path class="st31" d="M2.4,30.3"/>
</g>
</svg>
