<svg xmlns="http://www.w3.org/2000/svg" viewBox="0 0 455.111 455.111">
    <ellipse cx="227.556" cy="227.556" fill="#e24c4b" rx="227.556" ry="227.556"/>
    <path fill="#fff" d="M227.523 412.441c-102.4 0-184.889-82.489-184.889-184.889S125.123 42.663 227.523 42.663s184.889 82.489 184.889 184.889-82.489 184.889-184.889 184.889z"/>
    <g fill="#3f4448">
        <path d="M342.723 149.33h-230.4c-12.8 0-22.756 9.956-22.756 22.756v140.8c0 12.8 9.956 22.756 22.756 22.756h230.4c12.8 0 22.756-9.956 22.756-22.756v-140.8c1.422-12.801-9.956-22.756-22.756-22.756zm-170.666 48.355c0 2.844-1.422 4.267-4.267 4.267h-39.822c-2.844 0-4.267-1.422-4.267-4.267v-9.956c0-2.844 1.422-4.267 4.267-4.267h39.822c2.844 0 4.267 1.422 4.267 4.267v9.956zm93.866 102.4c-31.289 0-56.889-25.6-56.889-56.889s25.6-56.889 56.889-56.889 56.889 25.6 56.889 56.889-25.6 56.889-56.889 56.889z"/>
        <path d="M302.901 243.196c0 21.333-17.067 38.4-38.4 38.4s-38.4-17.067-38.4-38.4 17.067-38.4 38.4-38.4c5.689 0 11.378 1.422 15.644 2.844-5.689 2.844-9.956 8.533-9.956 15.644 0 8.533 7.111 17.067 17.067 17.067 5.689 0 11.378-2.844 14.222-7.111 1.423 2.845 1.423 5.69 1.423 9.956zM157.835 143.641v15.644c0 2.844-1.422 4.267-4.267 4.267h-27.022c-2.844 0-4.267-2.844-4.267-4.267v-15.644c0-2.844 2.844-4.267 4.267-4.267h27.022c1.422-1.422 4.267 1.422 4.267 4.267zM314.279 153.596h-99.556l9.956-28.444c1.422-4.267 5.689-7.111 9.956-7.111h61.156c4.267 0 8.533 2.844 9.956 7.111l8.532 28.444z"/>
    </g>
    <path fill="#e24c4b" d="M382.546 352.707l-29.867 29.867-281.6-280.178 31.289-31.289z"/>
</svg>
