<svg xmlns="http://www.w3.org/2000/svg" id="Layer_1" viewBox="0 0 200 200">
    <style>
        .st0{fill:#020202}.st1{fill:none;stroke:#747475;stroke-width:3.5283;stroke-miterlimit:10}.st2{fill:#ec2527}.st3{fill:#6cbe46}
    </style>
    <path d="M75.284 146.016H22.395c-10.765 0-19.572-8.807-19.572-19.572V73.557c0-10.765 8.807-19.572 19.572-19.572h52.889c10.765 0 19.572 8.807 19.572 19.572v52.888c-.002 10.765-8.809 19.571-19.572 19.571z" class="st0"/>
    <path d="M13.667 97.539s2.205-31.975 35.615-33.078c0 0 29.991-.662 34.071 33.078" class="st1"/>
    <path d="M176.998 146.016H124.11c-10.765 0-19.572-8.807-19.572-19.572V73.556c0-10.765 8.807-19.572 19.572-19.572h52.888c10.765 0 19.572 8.807 19.572 19.572v52.888c0 10.763-8.808 19.572-19.572 19.572z" class="st0"/>
    <path d="M115.548 97.539s2.205-31.975 35.615-33.078c0 0 29.991-.662 34.071 33.078" class="st1"/>
    <circle cx="48.51" cy="100" r="31.5" class="st2"/>
    <circle cx="150.391" cy="100" r="31.5" class="st3"/>
</svg>
