<svg xmlns="http://www.w3.org/2000/svg" viewBox="0 0 200 200">
    <style>
        .st0{fill:#403f44}.st1{fill:#353535}.st2{fill:#282828}.st3{fill:#7d7d7d}.st4{fill:#5f5f61}.st5{fill:#333}.st6{fill:#fff;stroke:#353535;stroke-miterlimit:10}.st7{fill:#b3b3b3}.st8{fill:#afaeb1}.st9{fill:#3d3c3f}.st10{fill:#4d4d4d}.st11{fill:#6e6f72}.st12{fill:#303030}.st13{fill:#434343}.st14{fill:#505050}.st15{opacity:.7;fill:#171717}.st16{fill:#fff}.st17{opacity:.5;fill:#4b4c5a}.st18{fill:#2c2b2d}
    </style>
    <g id="Layer_1">
        <path d="M122.995 189.5H9.629l.101-95.777h112.994z" class="st0"/>
        <path d="M122.724 93.791s-2.741-15.068 30.202-27.133 35.005 1.511 37.174 7.341l.271 115.095-67.376.407-.271-95.71z" class="st1"/>
        <path d="M9.9 170.167l112.691.04.326.97H9.648z" class="st2"/>
        <path d="M122.591 170.207L9.9 170.167l-.25-.971h113.267z" class="st3"/>
        <path d="M9.929 100.997l112.691.04.327.971H9.677z" class="st2"/>
        <path d="M9.73 93.723v-2.96c0-.351.069-.688.211-1.009 1.366-3.08 9.93-19.259 41.747-26.601 34.976-5.423 124.924-1.259 124.924-1.259s-40.535 2.005-53.888 31.829H9.73z" class="st4"/>
        <path d="M115.946 76.303H46.807l10.168-8.27 66.969 1.356z" class="st5"/>
        <path d="M55.077 72.735l62.403.17s-3.703-44.648 17.717-63.165l-61.208.454S57.653 13.008 55.078 67.47v5.265z" class="st6"/>
        <path d="M71.151 27.364h23.046v3.254H71.151zM67.898 35.091h23.046v3.254H67.898zM105.721 27.364h11.523v3.254h-11.523zM102.467 35.091h11.523v3.254h-11.523z" class="st7"/>
        <path d="M15.424 110.601H51.01v4.959H15.424z" class="st8"/>
        <path d="M96.815 149.135h18.166v13.624H96.815z" class="st9"/>
        <path d="M96.815 149.135v13.625l3.196-1.637z" class="st10"/>
        <path d="M100.011 161.123h14.97v1.637H96.815z" class="st11"/>
        <path d="M100.011 161.123l-3.196.189v-12.177h3.196z" class="st10"/>
        <path d="M98.413 149.135h16.568v12.806H98.413z" class="st12"/>
        <path d="M98.413 149.524h15.144v12.028H98.413z" class="st13"/>
        <path d="M98.809 149.954h14.45v11.169h-14.45z" class="st14"/>
        <path d="M99.105 150.183h13.856v10.71H99.105z" class="st15"/>
        <circle cx="106.697" cy="155.538" r=".775" class="st16"/>
        <path d="M157.361 61.18l-39.882 11.725-.141-1.863-.068-1.58-.026-3.398.261-5.697z" class="st17"/>
    </g>
    <path id="Layer_3" d="M15.424 128.246h50.888v34.513H15.424z" class="st18"/>
</svg>
