<svg xmlns="http://www.w3.org/2000/svg" id="Layer_1" viewBox="0 0 200 200">
    <style>
        .st0{fill:#898989}.st1{fill:#d6d6d6}.st2{fill:#ffe840}.st3{fill:#c9a200}.st4,.st5,.st6{fill:none;stroke:#c9a200;stroke-width:2.3038;stroke-miterlimit:10}.st5,.st6{stroke-width:2.0083}.st6{stroke-width:1.9301}.st7{fill:#dbdbdb}
    </style>
    <path d="M189.117 166.376H10.883A4.883 4.883 0 0 1 6 161.493V38.507a4.883 4.883 0 0 1 4.883-4.883h178.234A4.883 4.883 0 0 1 194 38.507v122.985a4.884 4.884 0 0 1-4.883 4.884z" class="st0"/>
    <path d="M6 136.91h188v14.888H6z" class="st1"/>
    <path d="M22.378 116.47a2.341 2.341 0 0 1-2.339-2.339V71.773a2.341 2.341 0 0 1 2.339-2.339h42.357a2.341 2.341 0 0 1 2.339 2.339v42.357a2.341 2.341 0 0 1-2.339 2.339l-42.357.001z" class="st2"/>
    <path d="M64.735 71.738l.035.035-.035 42.392-42.392-.035.035-42.392h42.357m0-4.608H22.378a4.643 4.643 0 0 0-4.643 4.643v42.357a4.643 4.643 0 0 0 4.643 4.643h42.357a4.643 4.643 0 0 0 4.643-4.643V71.773a4.643 4.643 0 0 0-4.643-4.643z" class="st3"/>
    <path d="M36.669 75.146H44.3l5.976 6.119 14.686.36" class="st4"/>
    <path d="M54.415 110.037h-7.739l-6.081-6.026-18.5-.453" class="st5"/>
    <path d="M66.258 92.064H50.472c-3.117 0-5.668 2.154-5.668 4.787s2.551 4.788 5.668 4.788h15.786" class="st6"/>
    <path d="M21.047 91.056h15.786c3.117 0 5.668-2.333 5.668-5.183 0-2.851-2.551-5.183-5.668-5.183H21.047" class="st5"/>
    <path d="M184.106 48.5H19.235c-.825 0-1.5-.675-1.5-1.5v-1.02c0-.825.675-1.5 1.5-1.5h164.871c.825 0 1.5.675 1.5 1.5V47c0 .825-.675 1.5-1.5 1.5z" class="st7"/>
</svg>
